<svg width="324" height="72" viewBox="0 0 324 72" fill="none" xmlns="http://www.w3.org/2000/svg">
<path d="M1 66L9 42C11 35 18.2 22.2 31 27L58.1523 63.5151L64.5122 63.2386C77.3326 55.0604 97.1619 39.7716 100 27C103.09 36.4641 109.516 51.0764 117.953 60.9151L150.941 59.4808C155.567 49.2086 156.889 33.9748 156.776 20.9092C156.226 15.4191 156 10.2566 156 6C156.422 10.2173 156.728 15.3682 156.776 20.9092C158.126 34.4015 161.426 49.8719 168.108 58.7344L208.537 56.9767C216.436 51.9813 222.672 45.9938 226 42C229.328 45.6306 234.661 50.909 240.391 55.5917L268.629 54.364C278.664 39.7119 289.268 20.0486 287.441 7.35114C286.472 5.02098 285.654 2.87427 285 1C286.312 2.81683 287.097 4.96052 287.441 7.35114C293.883 22.8407 307.006 46.4369 323 52L268.629 54.364C265.578 58.8178 262.58 62.8087 260 66C254.757 66 247.286 61.2272 240.391 55.5917L208.537 56.9767C200.613 61.9875 191.016 66 181 66C175.718 66 171.482 63.2097 168.108 58.7344L150.941 59.4808C148.226 65.5117 144.371 69.8323 139 71C131.262 72.6823 124.078 68.056 117.953 60.9151L64.5122 63.2386C62.8776 64.2813 61.357 65.2084 60 66L58.1523 63.5151L1 66Z" fill="#583535"/>
<path d="M1 66L9 42C11 35 18.2 22.2 31 27L60 66C72 59 96.8 41.4 100 27C105.333 43.3333 120.6 75 139 71C157.4 67 158 26 156 6C156 26 161 66 181 66C201 66 219.333 50 226 42C233.333 50 250.4 66 260 66C272.667 50.3333 295.4 15.4 285 1C290 15.3333 304.6 45.6 323 52L1 66Z" stroke="black"/>
</svg>
